<?xml version="1.0" encoding="UTF-8"?>
<svg width="500px" height="305px" viewBox="0 0 500 305" version="1.1" xmlns="http://www.w3.org/2000/svg" xmlns:xlink="http://www.w3.org/1999/xlink">
    <!-- Generator: Sketch 51.2 (57519) - http://www.bohemiancoding.com/sketch -->
    <title>Rectangle 2</title>
    <desc>Created with Sketch.</desc>
    <defs></defs>
    <g id="Page-1" stroke="none" stroke-width="1" fill="none" fill-rule="evenodd">
        <g id="UI-" transform="translate(-12.000000, -1570.000000)" fill="#FB9393" fill-rule="nonzero">
            <path d="M140.040467,1570 L449.458865,1570 C484.633813,1620.39807 504.11273,1655.50129 507.895615,1675.30966 C525.32417,1766.57098 483.714618,1814.42887 449.458865,1825.83262 C404.050241,1840.94917 369.992873,1828.84111 347.286759,1789.50844 C362.535883,1826.71602 349.672241,1850.91361 308.695835,1862.10121 C267.719429,1873.28881 244.805235,1854.40703 239.953253,1805.45587 C227.829471,1851.81862 209.088229,1875 183.729525,1875 C134.714064,1875 110.206334,1851.81862 110.206334,1805.45587 C44.7354448,1840.24124 12,1827.46291 12,1767.12088 C12,1706.77885 54.6801556,1641.07189 140.040467,1570 Z" id="Rectangle-2"></path>
        </g>
    </g>
</svg>