<?xml version="1.0" encoding="UTF-8"?>
<svg width="349px" height="231px" viewBox="0 0 349 231" version="1.1" xmlns="http://www.w3.org/2000/svg" xmlns:xlink="http://www.w3.org/1999/xlink">
    <!-- Generator: Sketch 51.2 (57519) - http://www.bohemiancoding.com/sketch -->
    <title>Rectangle 2 Copy 4</title>
    <desc>Created with Sketch.</desc>
    <defs></defs>
    <g id="Page-1" stroke="none" stroke-width="1" fill="none" fill-rule="evenodd">
        <g id="UI-" transform="translate(-610.000000, -1644.000000)" fill="#FFD4D4" fill-rule="nonzero">
            <path d="M699.372246,1644 L915.346288,1644 C939.898401,1682.17034 953.494685,1708.75672 956.13514,1723.75912 C968.300271,1792.87835 939.256804,1829.12482 915.346288,1837.76176 C883.651068,1849.21068 859.879025,1840.04031 844.030158,1810.25066 C854.674046,1838.43082 845.695224,1856.75752 817.093693,1865.23075 C788.492161,1873.70398 772.498054,1859.40336 769.111371,1822.32887 C760.648971,1857.44296 747.567584,1875 729.867208,1875 C695.654417,1875 678.548021,1857.44296 678.548021,1822.32887 C632.84934,1848.67451 610,1838.9965 610,1793.29483 C610,1747.59317 639.790749,1697.82822 699.372246,1644 Z" id="Rectangle-2-Copy-4"></path>
        </g>
    </g>
</svg>