<?xml version="1.0" encoding="UTF-8"?>
<svg width="195px" height="139px" viewBox="0 0 195 139" version="1.1" xmlns="http://www.w3.org/2000/svg" xmlns:xlink="http://www.w3.org/1999/xlink">
    <!-- Generator: Sketch 51.2 (57519) - http://www.bohemiancoding.com/sketch -->
    <title>Rectangle 2 Copy 3</title>
    <desc>Created with Sketch.</desc>
    <defs></defs>
    <g id="Page-1" stroke="none" stroke-width="1" fill="none" fill-rule="evenodd">
        <g id="UI-" transform="translate(-671.000000, -2044.000000)" fill="#FB9393" fill-rule="nonzero">
            <path d="M687.714087,2070.85729 C716.336081,2057.40491 740.398642,2049.19456 759.901769,2046.22624 C779.404896,2043.25792 809.28782,2043.25792 849.550543,2046.22624 C857.974382,2061.06803 862.923965,2073.43279 864.39929,2083.32054 C871.196426,2128.87547 854.968701,2152.7647 841.608957,2158.45711 C823.899594,2166.00284 810.61722,2159.95886 801.761836,2140.32516 C807.708994,2158.89808 802.692174,2170.97679 786.711376,2176.56131 C770.730577,2182.14582 761.794042,2172.7206 759.901769,2148.28564 C755.173494,2171.42855 747.864409,2183 737.974515,2183 C718.858485,2183 709.30047,2171.42855 709.30047,2148.28564 C683.766823,2165.64946 671,2159.2709 671,2129.14996 C671,2099.02902 676.571362,2079.59813 687.714087,2070.85729 Z" id="Rectangle-2-Copy-3" transform="translate(768.500000, 2113.500000) scale(-1, -1) translate(-768.500000, -2113.500000) "></path>
        </g>
    </g>
</svg>